<svg id="Layer_1" data-name="Layer 1" xmlns="http://www.w3.org/2000/svg" viewBox="0 0 94 100"><defs><style>.cls-1{fill:#333;}</style></defs><polygon class="cls-1" points="3 31.22 3 3 91 3 91 31.22 94 31.22 94 0 0 0 0 31.22 3 31.22"/><polygon class="cls-1" points="91 71.22 91 97 3 97 3 71.22 0 71.22 0 100 94 100 94 71.22 91 71.22"/><path class="cls-1" d="M0,37.81H3.51v24H15v2.91H0Z"/><path class="cls-1" d="M40.39,51c0,9.28-5.64,14.19-12.52,14.19-7.12,0-12.12-5.51-12.12-13.67,0-8.56,5.32-14.16,12.52-14.16C35.63,37.37,40.39,43,40.39,51Zm-20.92.44c0,5.76,3.12,10.92,8.6,10.92s8.64-5.08,8.64-11.2c0-5.36-2.8-11-8.6-11S19.47,45.53,19.47,51.45Z"/><path class="cls-1" d="M65.43,63.57A25.44,25.44,0,0,1,57.15,65c-4.08,0-7.44-1-10.08-3.55a13.87,13.87,0,0,1-3.76-10c0-8,5.56-13.92,14.6-13.92a16.67,16.67,0,0,1,6.72,1.24l-.84,2.84a14,14,0,0,0-6-1.16C51.27,40.45,47,44.53,47,51.29s4.12,10.88,10.4,10.88A11.35,11.35,0,0,0,62,61.45v-8H56.55v-2.8h8.88Z"/><path class="cls-1" d="M93.78,51c0,9.28-5.63,14.19-12.51,14.19-7.12,0-12.12-5.51-12.12-13.67,0-8.56,5.32-14.16,12.52-14.16C89,37.37,93.78,43,93.78,51Zm-20.91.44c0,5.76,3.12,10.92,8.6,10.92s8.64-5.08,8.64-11.2c0-5.36-2.8-11-8.6-11S72.87,45.53,72.87,51.45Z"/></svg>